<?xml version="1.0" encoding="utf-8"?>
<!-- Generator: Adobe Illustrator 24.1.1, SVG Export Plug-In . SVG Version: 6.00 Build 0)  -->
<svg version="1.1" id="Layer_1" xmlns="http://www.w3.org/2000/svg" xmlns:xlink="http://www.w3.org/1999/xlink" x="0px" y="0px"
	 viewBox="0 0 1024 1024" style="enable-background:new 0 0 1024 1024;" xml:space="preserve">
<style type="text/css">
	.st0{fill:#00205B;}
	.st1{fill:#BA0C2F;}
</style>
<g>
	<g>
		<path class="st0" d="M789.43,716.72c-10.74,14.21,4.84,25.89,2.9,39.86c-7.9-3.02-6-12.07-11.69-16.46
			c-7.74,5.96-4.28,17.63-13.09,25.01c-2.8-9.5,3.6-16.33,3.56-24.77c-4.71-5.75-2.26-14.11-4.99-22.9
			c-7.12,9.6-5.59,20.64-9.61,29.21c-3.53,2.49-5.2-2.39-7.75-1.51c-4.44,2.94-4.94,9.07-11.8,10.38
			c19.77-36.31,34.89-73.38,22.42-115.4c5.96-5.66,11.54-10.97,18.71-17.78c2.9,12.24,5.59,23.02,7.97,33.87
			c1.63,7.44,4.21,13.48,10.98,18.48c12.71,9.38,9.5,23.87,10.13,39.3c4.76,9.86,14.74,19.4,20.43,33.29
			c-10.94-1.49-10.51-13.15-18.63-16.1c-2.81,7.96,4.44,15.7-0.4,25.7C802.7,741.94,793.93,730.78,789.43,716.72z"/>
	</g>
	<g>
		<g>
			<path class="st1" d="M530.05,344.97c38.32-10.53,72.62-8.9,102.91,17.14c2.56,2.2,6.23,3.4,9.59,4.32
				c58,15.86,94.37,55.23,117.82,108.48c11.57,26.27,16.89,54.1,19.28,82.57c0.87,10.41-0.34,20.66-3.54,30.5
				c-8.28,25.43-33.11,37.36-64.51,30.4c-44.33-9.83-88.42-20.73-132.78-30.4c-95.69-20.86-191.3-42.22-288.73-53.86
				c-13.92-1.66-29.05,0.89-40.07-12.75c-12.67-15.68-18.27-33.46-20.09-52.84c-2.23-23.87,7.49-43.78,22.44-61.3
				c33.74-39.51,78.33-61.43,126.92-76.18c31.44-9.54,63.48-15.66,96.57-10.03C496.12,324.48,514.83,331.7,530.05,344.97z
				 M601.17,367.7l0.17-0.75l-0.33,0.52c15,13.95,24.77,32.09,37.42,47.95c-5.18-15.53-13.97-28.66-25.02-40.24
				C610.09,371.69,606.93,367.41,601.17,367.7z M310.78,394.89c0.5,0.86,1,1.71,1.5,2.57c10.76-5.35,21.32-11.14,32.31-15.96
				c45.8-20.07,89.69-46.36,142.32-44.76c0.17,0.01,0.36-0.44,2.08-2.71C417.15,322.42,363.65,357.75,310.78,394.89z M527.6,435.18
				c9.12-21.25,12.16-43.41,10.29-66.3C530.2,390.35,528.24,412.67,527.6,435.18z"/>
		</g>
	</g>
	<g>
		<g>
			<path class="st0" d="M258.33,546.05c99.68,14.07,198.94,27.3,296.28,57.24c-7.32,11.63-16.96,16.84-26.79,21.54
				c-29.24,14-60.77,19.45-92.52,23.08c-56.92,6.51-113.97,9.74-170.99,0.62c-18.96-3.03-37.76-6.78-54.66-16.58
				c-15.28-8.86-17.09-15.79-6.68-29.69C218.58,581.41,238.06,564.3,258.33,546.05z"/>
		</g>
	</g>
</g>
</svg>
